<svg xmlns="http://www.w3.org/2000/svg" xmlns:xlink="http://www.w3.org/1999/xlink" width="321" zoomAndPan="magnify" viewBox="0 0 240.75 240.749995" height="321" preserveAspectRatio="xMidYMid meet" version="1.0"><defs><clipPath id="c697c94604"><path d="M 8 0 L 230 0 L 230 240.5 L 8 240.5 Z M 8 0 " clip-rule="nonzero"/></clipPath><clipPath id="4649041b63"><path d="M 86 0 L 214 0 L 214 240.304688 L 86 240.304688 Z M 86 0 " clip-rule="nonzero"/></clipPath><clipPath id="c5894b5d5a"><rect x="0" width="222" y="0" height="241"/></clipPath></defs><g clip-path="url(#c697c94604)"><g transform="matrix(1, 0, 0, 1, 8, 0)"><g clip-path="url(#c5894b5d5a)"><path fill="#f2f2f2" d="M 8.828125 160.800781 C 6.894531 164.496094 9.25 168.523438 13.367188 168.523438 L 48.199219 168.523438 C 51.894531 168.523438 55.042969 166.269531 57.667969 161.8125 C 81.6875 119.355469 94.210938 97.300781 95.175781 95.527344 L 95.164062 95.527344 L 71.253906 53.941406 C 68.730469 49.589844 65.523438 47.386719 61.625 47.386719 L 26.792969 47.386719 C 22.414062 47.386719 19.949219 50.765625 22.253906 54.953125 L 45.742188 95.527344 C 45.84375 95.625 45.84375 95.6875 45.742188 95.6875 Z M 8.828125 160.800781 " fill-opacity="1" fill-rule="nonzero"/><g clip-path="url(#4649041b63)"><path fill="#f2f2f2" d="M 212.804688 7.566406 L 212.816406 7.566406 C 214.859375 3.597656 212.554688 0 208.265625 0 L 173.113281 0 C 169.316406 0 166.21875 2.195312 163.753906 6.554688 C 113.832031 94.785156 88.058594 140.398438 86.285156 143.515625 L 135.71875 233.949219 C 138.074219 238.339844 141.289062 240.492188 145.355469 240.492188 L 180.230469 240.492188 C 184.878906 240.492188 186.863281 236.734375 184.769531 232.925781 L 135.769531 143.515625 L 135.769531 143.355469 Z M 212.804688 7.566406 " fill-opacity="1" fill-rule="nonzero"/></g></g></g></g></svg>