<svg xmlns="http://www.w3.org/2000/svg" xmlns:xlink="http://www.w3.org/1999/xlink" width="321" zoomAndPan="magnify" viewBox="0 0 240.75 240.749995" height="321" preserveAspectRatio="xMidYMid meet" version="1.0"><defs><clipPath id="ad8a5e5c2e"><path d="M 0 0 L 240.5 0 L 240.5 240.5 L 0 240.5 Z M 0 0 " clip-rule="nonzero"/></clipPath></defs><g clip-path="url(#ad8a5e5c2e)"><path fill="#f2f2f2" d="M 69.257812 171.371094 C 107.367188 209.484375 149.472656 228.90625 179.363281 238.628906 C 201.046875 245.679688 224.332031 233.644531 231.746094 212.082031 L 239.890625 188.339844 C 242.261719 181.433594 238.902344 173.875 232.203125 171 L 188.207031 152.144531 C 182.011719 149.484375 174.8125 150.867188 170.050781 155.644531 L 146.957031 178.738281 C 146.957031 178.738281 124.035156 169.460938 97.609375 143.035156 C 71.183594 116.609375 61.90625 93.671875 61.90625 93.671875 L 84.996094 70.582031 C 89.75 65.816406 91.132812 58.632812 88.488281 52.433594 L 69.628906 8.429688 C 66.753906 1.726562 59.183594 -1.632812 52.289062 0.738281 L 28.546875 8.886719 C 6.972656 16.296875 -5.0625 39.570312 2.003906 61.265625 C 11.726562 91.15625 31.148438 133.25 69.257812 171.371094 Z M 69.257812 171.371094 " fill-opacity="1" fill-rule="nonzero"/></g></svg>