<svg xmlns="http://www.w3.org/2000/svg" xmlns:xlink="http://www.w3.org/1999/xlink" width="321" zoomAndPan="magnify" viewBox="0 0 240.75 240.749995" height="321" preserveAspectRatio="xMidYMid meet" version="1.0"><defs><clipPath id="ce5f38c4df"><path d="M 0 17.722656 L 204 17.722656 L 204 222 L 0 222 Z M 0 17.722656 " clip-rule="nonzero"/></clipPath><clipPath id="702643c9f5"><path d="M 212 195 L 240.5 195 L 240.5 223 L 212 223 Z M 212 195 " clip-rule="nonzero"/></clipPath></defs><path fill="#f2f2f2" d="M 228.800781 209.777344 C 230.882812 209.796875 232.589844 208.128906 232.609375 206.046875 C 232.609375 205.960938 232.609375 205.875 232.609375 205.789062 C 232.609375 202.957031 230.902344 201.617188 227.410156 201.617188 L 221.761719 201.617188 L 221.761719 216.40625 L 223.890625 216.40625 L 223.890625 209.960938 L 226.5 209.960938 L 226.558594 210.039062 L 230.613281 216.40625 L 232.886719 216.40625 L 228.523438 209.816406 L 228.8125 209.777344 Z M 226.347656 208.292969 L 223.878906 208.292969 L 223.878906 203.292969 L 227.007812 203.292969 C 228.621094 203.292969 230.460938 203.5625 230.460938 205.671875 C 230.460938 208.101562 228.601562 208.300781 226.335938 208.300781 " fill-opacity="1" fill-rule="nonzero"/><g clip-path="url(#ce5f38c4df)"><path fill="#f2f2f2" d="M 173.34375 191.234375 L 143.203125 191.234375 L 143.203125 144.027344 C 143.203125 132.777344 143.003906 118.28125 127.527344 118.28125 C 112.054688 118.28125 109.425781 130.550781 109.425781 143.214844 L 109.425781 191.234375 L 79.285156 191.234375 L 79.285156 94.15625 L 108.226562 94.15625 L 108.226562 107.421875 L 108.628906 107.421875 C 114.53125 97.332031 125.503906 91.304688 137.179688 91.738281 C 167.734375 91.738281 173.363281 111.835938 173.363281 137.976562 L 173.363281 191.234375 Z M 45.257812 80.886719 C 35.597656 80.886719 27.761719 73.058594 27.761719 63.398438 C 27.761719 53.738281 35.589844 45.902344 45.25 45.902344 C 54.910156 45.902344 62.746094 53.730469 62.746094 63.390625 C 62.746094 73.050781 54.917969 80.886719 45.257812 80.886719 M 60.339844 191.234375 L 30.160156 191.234375 L 30.160156 94.15625 L 60.339844 94.15625 Z M 188.378906 17.902344 L 15.011719 17.902344 C 6.820312 17.8125 0.0976562 24.375 0 32.566406 L 0 206.652344 C 0.0976562 214.855469 6.8125 221.414062 15.011719 221.328125 L 188.378906 221.328125 C 196.589844 221.433594 203.332031 214.863281 203.449219 206.652344 L 203.449219 32.558594 C 203.332031 24.347656 196.589844 17.785156 188.378906 17.890625 " fill-opacity="1" fill-rule="nonzero"/></g><g clip-path="url(#702643c9f5)"><path fill="#f2f2f2" d="M 226.59375 195.023438 C 218.929688 195.101562 212.78125 201.367188 212.859375 209.03125 C 212.933594 216.695312 219.199219 222.84375 226.863281 222.769531 C 234.527344 222.691406 240.679688 216.425781 240.601562 208.761719 C 240.523438 201.203125 234.421875 195.09375 226.863281 195.023438 L 226.59375 195.023438 M 226.59375 221.183594 C 219.878906 221.300781 214.34375 215.9375 214.230469 209.222656 C 214.113281 202.507812 219.476562 196.972656 226.191406 196.855469 C 232.90625 196.742188 238.441406 202.105469 238.558594 208.820312 L 238.558594 209.019531 C 238.703125 215.59375 233.484375 221.03125 226.910156 221.175781 L 226.59375 221.175781 " fill-opacity="1" fill-rule="nonzero"/></g></svg>