<svg xmlns="http://www.w3.org/2000/svg" xmlns:xlink="http://www.w3.org/1999/xlink" width="321" zoomAndPan="magnify" viewBox="0 0 240.75 240.749995" height="321" preserveAspectRatio="xMidYMid meet" version="1.0"><defs><clipPath id="3286af3524"><path d="M 45.429688 0 L 195.277344 0 L 195.277344 240.5 L 45.429688 240.5 Z M 45.429688 0 " clip-rule="nonzero"/></clipPath></defs><g clip-path="url(#3286af3524)"><path fill="#f2f2f2" d="M 120.339844 -0.113281 C 79.171875 -0.113281 45.675781 33.382812 45.675781 74.554688 C 45.675781 114.914062 116.078125 233.359375 119.074219 238.378906 L 120.339844 240.507812 L 121.613281 238.378906 C 124.613281 233.359375 195.011719 114.914062 195.011719 74.550781 C 195.003906 33.382812 161.507812 -0.113281 120.339844 -0.113281 Z M 120.339844 109.414062 C 102.535156 109.414062 88.046875 94.929688 88.046875 77.121094 C 88.046875 59.3125 102.535156 44.824219 120.339844 44.824219 C 138.148438 44.824219 152.636719 59.308594 152.636719 77.121094 C 152.636719 94.925781 138.148438 109.414062 120.339844 109.414062 Z M 120.339844 109.414062 " fill-opacity="1" fill-rule="nonzero"/></g></svg>