<svg xmlns="http://www.w3.org/2000/svg" xmlns:xlink="http://www.w3.org/1999/xlink" width="321" zoomAndPan="magnify" viewBox="0 0 240.75 240.749995" height="321" preserveAspectRatio="xMidYMid meet" version="1.0"><path fill="#f2f2f2" d="M 171.929688 169.695312 C 176.066406 179.257812 174.9375 189.222656 175 199.066406 C 175.0625 208.882812 175.058594 218.699219 174.992188 228.515625 C 174.9375 235.816406 169.058594 240.683594 162.28125 239.195312 C 157.554688 238.15625 154.234375 234.042969 154.222656 228.960938 C 154.195312 215.089844 154.144531 201.214844 154.285156 187.34375 C 154.359375 180.429688 152.320312 174.433594 147.652344 169.351562 C 144.644531 166.082031 143.550781 162.351562 145.160156 158.148438 C 146.722656 154.074219 149.910156 152.183594 154.199219 151.386719 C 162.0625 149.925781 170.046875 148.664062 177.628906 146.230469 C 195.152344 140.609375 205.410156 128.097656 209.15625 110.265625 C 211.449219 99.332031 212.515625 88.289062 209.714844 77.242188 C 207.90625 70.121094 204.53125 63.765625 199.515625 58.410156 C 195.847656 54.492188 194.96875 50.339844 196.785156 45.253906 C 199.492188 37.683594 199.769531 29.90625 197.777344 21.59375 C 195.046875 22.523438 192.335938 23.113281 189.941406 24.324219 C 183.882812 27.394531 177.824219 30.511719 172.042969 34.0625 C 168.164062 36.445312 164.46875 37.15625 160.058594 36.015625 C 138.835938 30.523438 117.59375 30.53125 96.335938 36.042969 C 92.027344 37.160156 88.308594 36.609375 84.59375 34.09375 C 77.332031 29.175781 69.695312 24.921875 61.210938 22.402344 C 60.453125 22.175781 59.675781 22.027344 58.722656 21.800781 C 57.144531 27.605469 57.019531 33.292969 58.089844 38.992188 C 58.570312 41.527344 59.332031 44.019531 60.117188 46.484375 C 61.375 50.453125 60.847656 54.09375 58.019531 57.144531 C 48.769531 67.140625 44.660156 78.941406 45.199219 92.488281 C 45.570312 101.855469 46.707031 111.070312 50.203125 119.851562 C 55.863281 134.085938 66.65625 142.722656 80.9375 147.066406 C 87.644531 149.105469 94.628906 150.339844 101.558594 151.527344 C 108.589844 152.734375 112.753906 157.058594 111.824219 163.429688 C 111.527344 165.464844 110.472656 167.671875 109.109375 169.21875 C 104.175781 174.808594 102.070312 181.175781 102.183594 188.609375 C 102.386719 201.992188 102.28125 215.378906 102.230469 228.765625 C 102.207031 234.910156 97.808594 239.4375 92 239.515625 C 86.15625 239.59375 81.640625 234.957031 81.582031 228.703125 C 81.527344 222.878906 81.570312 217.046875 81.570312 211.527344 C 76.265625 211.527344 71.171875 211.800781 66.117188 211.472656 C 54.0625 210.6875 44.027344 205.429688 35.839844 196.703125 C 32.128906 192.75 28.800781 188.429688 25.34375 184.242188 C 22.484375 180.785156 19.515625 177.71875 14.996094 176.15625 C 9.984375 174.421875 7.695312 168.46875 9.421875 163.4375 C 11.195312 158.269531 16.558594 155.425781 21.878906 156.792969 C 28.75 158.554688 34.113281 162.632812 38.652344 167.875 C 41.941406 171.675781 45.101562 175.59375 48.207031 179.546875 C 56.90625 190.609375 68.253906 192.90625 81.273438 189.792969 C 81.515625 186.332031 81.546875 182.921875 82.050781 179.582031 C 82.539062 176.316406 83.511719 173.128906 84.285156 169.828125 C 80.582031 168.699219 76.691406 167.652344 72.894531 166.332031 C 45.144531 156.671875 30.074219 136.660156 25.785156 108.066406 C 24.09375 96.796875 23.519531 85.480469 26.121094 74.210938 C 28.195312 65.246094 31.898438 57.035156 37.375 49.644531 C 38.316406 48.375 38.652344 47.246094 38.292969 45.660156 C 35.367188 32.792969 36.429688 20.21875 41.339844 7.976562 C 43.382812 2.894531 46.753906 0.851562 52.1875 0.597656 C 65.007812 0 76.207031 4.921875 86.746094 11.238281 C 91.796875 14.265625 96.257812 14.8125 101.894531 13.691406 C 121.136719 9.871094 140.433594 10.425781 159.601562 14.554688 C 161.8125 15.027344 163.515625 14.808594 165.46875 13.613281 C 174.976562 7.789062 184.882812 2.769531 196.039062 1 C 199.445312 0.460938 203.015625 0.460938 206.457031 0.773438 C 210.566406 1.144531 213.40625 3.632812 214.972656 7.492188 C 220.023438 19.949219 221.164062 32.730469 218.269531 45.886719 C 218.046875 46.902344 218.300781 48.34375 218.902344 49.171875 C 229.046875 63.074219 233 78.671875 231.960938 95.707031 C 231.273438 107.019531 229.527344 118.105469 225.097656 128.621094 C 216.714844 148.511719 201.511719 160.667969 181.285156 167.058594 C 178.289062 168.003906 175.238281 168.765625 171.929688 169.695312 Z M 171.929688 169.695312 " fill-opacity="1" fill-rule="nonzero"/></svg>