<?xml version="1.0" encoding="UTF-8" standalone="no"?>
<!-- Created with Inkscape (http://www.inkscape.org/) -->

<svg
   version="1.1"
   id="svg48"
   width="25.408632"
   height="41.844841"
   viewBox="0 0 25.408632 41.844841"
   xmlns="http://www.w3.org/2000/svg"
   xmlns:svg="http://www.w3.org/2000/svg">
  <defs
     id="defs52" />
  <g
     id="g54"
     style="display:inline"
     transform="translate(0.04783764,27.886457)">
    <path
       style="fill:#000000;stroke-width:0.999999"
       d="M 6.3231137,13.732368 C 5.9337821,13.16703 5.8044008,12.586825 5.9485261,12.052532 c 0.044851,-0.166254 0.071593,-0.30228 0.059443,-0.30228 -0.012213,0 -0.1771087,0.06525 -0.3665903,0.144997 -0.5730984,0.241214 -1.2327486,0.372351 -1.875284,0.372794 -0.6618077,5.76e-4 -1.004899,-0.05318 -1.4819812,-0.231673 -0.377754,-0.141341 -0.4012839,-0.211406 -0.038157,-0.113622 0.1912062,0.05149 0.3739654,0.04486 0.8838633,-0.03204 1.267179,-0.191105 2.451577,-0.677793 3.751981,-1.541749 C 7.2934783,10.075448 7.610225,9.8513403 7.5856854,9.8509373 7.5611332,9.8503614 7.3668212,9.9376534 7.1538549,10.044536 6.3735262,10.436158 5.1159285,10.836434 4.2332532,10.97413 4.0400993,11.00426 4.0765907,10.97712 4.4595905,10.805849 5.7690911,10.220266 8.0026056,8.7586644 9.023683,7.8191274 c 2.110271,-1.9417496 3.625562,-4.4759488 4.129544,-6.90631484 0.288665,-1.39205583 0.341347,-3.41188396 0.12055,-4.62202606 -0.393699,-2.1577985 -0.976387,-3.6186321 -2.629604,-6.5925855 -0.8556085,-1.539144 -1.3055352,-2.499369 -1.6280578,-3.474568 -0.4499015,-1.360357 -0.6116871,-2.385294 -0.6012366,-3.808941 0.00653,-0.902791 0.087954,-1.565364 0.1010515,-0.823308 0.00379,0.212196 0.033164,0.523114 0.06536,0.690926 0.032196,0.167801 0.086143,0.447617 0.1198763,0.621788 0.1035362,0.534701 0.3970763,1.435378 0.6942949,2.130355 0.5888678,1.376931 1.4233587,2.658089 3.0940217,4.750115 2.063668,2.5841496 2.908768,4.5574044 2.983734,6.9668358 0.05782,1.8584215 -0.338395,3.51835551 -1.286932,5.3915295 -0.768019,1.5166888 -1.63651,2.6492492 -3.193247,4.1641672 -0.519473,0.5055166 -0.905633,0.8956357 -0.858131,0.8669311 0.587408,-0.3549795 1.067815,-0.6984305 2.418241,-1.728836 1.237777,-0.9444538 1.984392,-1.603786 3.256163,-2.8755002 1.431813,-1.43175 2.336069,-2.5188235 3.27902,-3.9419507 1.372224,-2.0709983 2.242413,-4.1537105 2.684435,-6.4249377 0.148324,-0.7620999 0.20524,-2.386016 0.112022,-3.195532 -0.232777,-2.021422 -0.989225,-3.977109 -2.087378,-5.396621 -0.152599,-0.197239 -0.277436,-0.374406 -0.277436,-0.393701 0,-0.0426 0.668001,0.425221 1.065178,0.745975 1.685981,1.36157 3.030003,3.147868 3.768841,5.009054 0.790293,1.9907991 0.915838,4.3295998 0.34467,6.4208968 -0.169402,0.620274 -0.706068,1.9117373 -1.043046,2.5100681 -1.320406,2.3444859 -3.733389,4.559083 -7.134018,6.5474903 C 15.29256,5.169078 15.0754,5.2835595 12.783448,6.4210788 11.627586,6.9947457 10.435739,7.5863678 10.134898,7.735793 L 9.5879143,8.0074761 9.9333783,7.9750908 C 10.711964,7.9020869 10.874391,7.8376531 13.038642,6.743294 c 1.887939,-0.9546453 3.723705,-1.9408863 4.169724,-2.2401306 0.08385,-0.056264 0.476336,-0.319421 0.872181,-0.5848018 2.532605,-1.6978993 4.269229,-3.33287049 5.452172,-5.1330342 0.911757,-1.3874802 1.568438,-3.3126308 1.671831,-4.9011928 0.02396,-0.3681021 0.05026,-0.4893176 0.09623,-0.4433591 0.04203,0.042029 0.06212,0.4536075 0.05984,1.2263263 -0.004,1.3929255 -0.11737,2.1196647 -0.516542,3.3142626 -0.443664,1.32772739 -1.141088,2.53199247 -2.138424,3.6924784 -1.709676,1.9893548 -3.992141,3.612551 -7.408216,5.2684252 -0.670185,0.3248578 -1.697846,0.822855 -2.283693,1.1066605 -1.623067,0.786271 -3.3573401,1.8181071 -4.3182877,2.5692415 -0.5202459,0.406674 -1.3506392,1.216024 -1.6243248,1.583182 -0.3427919,0.459875 -0.523754,0.8984 -0.5605065,1.358291 l -0.031859,0.39874 z M 7.3546731,8.1228905 C 7.4095239,7.2173054 7.1347328,6.1488524 6.5892483,5.146743 6.1384667,4.3186133 5.612127,3.6675479 3.8518027,1.7606157 2.3722732,0.15786565 1.7396879,-0.70961295 1.1226752,-1.9818999 0.37628972,-3.520951 0.02800728,-4.9638906 -0.03775728,-6.789592 c -0.03673567,-1.0198287 0.02513549,-1.7893764 0.21525491,-2.6773369 0.11201159,-0.5231517 0.51360033,-1.7764561 0.55572275,-1.7343341 0.0125288,0.01242 -0.0232404,0.252414 -0.0794725,0.533089 -0.0796389,0.397499 -0.10201382,0.7903534 -0.10120524,1.7770156 8.9807e-4,1.0981809 0.0184247,1.3471269 0.13167442,1.8712577 0.19264434,0.8915129 0.44465514,1.6009182 0.87903624,2.4744759 0.6548347,1.3168978 1.220319,2.1059609 2.9512529,4.11810757 C 6.6381211,2.041309 7.4288835,3.4311644 7.7388184,5.2397846 7.9166851,6.2777895 7.8035259,7.5587623 7.4688599,8.2956214 L 7.3250209,8.6122966 Z M 8.0195643,8.0854515 C 8.1249957,7.9069953 8.3094468,7.4368561 8.3940614,7.1309263 8.5354367,6.6197727 8.5304884,5.1716511 8.385007,4.4955303 7.9598705,2.5189675 7.029571,0.93866819 4.8091391,-1.5788603 3.4022923,-3.1739457 2.6904032,-4.1776807 2.0743748,-5.434773 1.6131547,-6.3759567 1.3763162,-7.0275695 1.1987304,-7.8439223 1.0905953,-8.3410162 1.0708967,-8.6106715 1.0696607,-9.6108731 c -0.00124,-1.0028339 0.018235,-1.2781829 0.1295477,-1.8310309 0.5103845,-2.535041 2.085885,-4.712362 5.4061463,-7.47122 l 0.2417466,-0.200861 -0.1632532,0.361303 c -0.6868367,1.520144 -0.7694867,3.795733 -0.2065671,5.687192 0.1819727,0.61146 0.8351585,1.944222 1.269819,2.590971 0.3798856,0.565248 0.5412943,0.7656476 1.5232291,1.8911982 1.9585449,2.2449968 2.8249409,3.8609094 3.1998839,5.9680833 0.134806,0.7576443 0.136743,2.34672635 0.0038,3.1955318 -0.411989,2.6318058 -1.614862,4.908053 -3.590745,6.794916 C 8.2952546,7.9367232 7.9298498,8.2371804 8.0194822,8.0854642 Z M 13.992579,3.600263 c 0,-0.024552 0.11516,-0.2412349 0.255935,-0.4815245 0.506104,-0.8639389 1.158515,-2.39875137 1.439884,-3.38735914 0.307642,-1.08091866 0.400054,-1.79198316 0.40225,-3.09513096 0.0016,-0.9395981 -0.02106,-1.3246299 -0.101452,-1.7273157 -0.172349,-0.8628819 -0.373004,-1.5453366 -0.645866,-2.1966146 -0.552286,-1.3182202 -1.114193,-2.2051616 -2.251478,-3.5538341 -1.399369,-1.659471 -1.960701,-2.412217 -2.581579,-3.461894 -1.1418487,-1.930446 -1.6954801,-3.822003 -1.6985039,-5.803169 -0.00274,-1.797986 0.3528992,-3.327998 1.156203,-4.974089 0.3631199,-0.74409 1.2007359,-2.045507 1.6222259,-2.520485 l 0.253178,-0.285304 0.03797,0.573191 c 0.09267,1.399063 0.483668,2.879928 1.131904,4.286917 0.760487,1.650634 1.501993,2.739307 3.148249,4.622241 0.870224,0.995334 1.710091,2.07322 2.11847,2.718846 0.770923,1.218793 1.35327,2.727383 1.627109,4.215079 0.142786,0.775734 0.156726,0.974975 0.156241,2.2335606 -5.77e-4,1.4369362 -0.03428,1.7795302 -0.291843,2.9652232 -0.713858,3.2862676 -2.459578,6.39183851 -5.271156,9.3771962 -0.279247,0.2965049 -0.507721,0.5190162 -0.507721,0.494466 z"
       id="path8711" />
  </g>
</svg>
